<?xml version="1.0" standalone="no"?>
<!DOCTYPE svg PUBLIC "-//W3C//DTD SVG 20010904//EN"
 "http://www.w3.org/TR/2001/REC-SVG-20010904/DTD/svg10.dtd">
<svg version="1.0" xmlns="http://www.w3.org/2000/svg"
 width="240.000000pt" height="240.000000pt" viewBox="0 0 240.000000 240.000000"
 preserveAspectRatio="xMidYMid meet">
<metadata>
Created by potrace 1.14, written by Peter Selinger 2001-2017
</metadata>
<g transform="translate(0.000000,240.000000) scale(0.100000,-0.100000)"
fill="#000000" stroke="none">
<path d="M1769 2388 c-1 -5 -2 -12 -3 -17 0 -5 -5 -13 -9 -18 -5 -4 -13 -9
-18 -9 -5 -1 -14 -2 -20 -3 -5 0 -7 -5 -4 -11 3 -6 -1 -7 -9 -4 -9 3 -13 11
-10 18 3 6 -4 0 -16 -14 -13 -14 -30 -24 -39 -22 -14 2 -13 1 2 -8 9 -6 17
-16 17 -23 0 -7 -4 -6 -10 3 -7 12 -9 10 -8 -7 1 -11 7 -19 14 -16 7 2 15 -1
20 -8 4 -7 3 -10 -3 -6 -15 9 -25 -21 -14 -41 10 -19 11 -23 11 -49 0 -15 2
-16 10 -3 6 9 5 17 -3 23 -9 6 -8 7 2 5 8 -2 15 -16 15 -30 1 -15 -3 -24 -9
-21 -5 2 -2 -2 8 -10 9 -8 17 -17 17 -20 0 -4 -8 -4 -17 -1 -15 5 -15 4 -4 -4
8 -6 16 -26 18 -46 2 -29 -3 -39 -27 -56 -19 -14 -30 -17 -30 -9 0 7 -3 9 -7
6 -3 -4 -17 0 -29 8 -17 11 -25 12 -30 3 -4 -6 -3 -8 4 -4 6 3 13 3 16 -2 2
-4 -6 -8 -19 -8 -21 0 -22 3 -13 21 6 11 7 17 3 13 -5 -4 -14 -3 -22 4 -7 6
-16 8 -20 5 -3 -4 -12 -2 -19 4 -8 7 -14 6 -20 -2 -4 -7 -3 -9 4 -5 6 3 13 2
17 -4 4 -6 11 -8 16 -5 5 4 13 4 19 0 11 -7 2 -35 -12 -35 -6 0 -4 8 3 17 12
15 12 16 -3 10 -10 -3 -20 -2 -23 4 -4 5 -10 7 -15 4 -5 -3 -15 3 -22 15 -7
11 -19 20 -26 20 -8 0 -10 5 -6 13 4 6 4 9 -1 5 -4 -4 -26 1 -49 10 -23 9 -68
16 -103 16 -52 0 -70 -6 -118 -35 -77 -46 -231 -184 -462 -412 -105 -104 -196
-193 -200 -196 -11 -7 -106 -137 -146 -198 -15 -24 -29 -61 -31 -84 -4 -47 17
-135 44 -190 11 -20 16 -39 13 -43 -4 -3 -1 -6 6 -6 7 0 11 -6 8 -13 -2 -6 0
-23 6 -37 22 -55 27 -101 13 -119 -6 -8 -11 -17 -11 -20 0 -3 -13 -5 -30 -3
-16 1 -46 4 -67 5 -20 1 -34 5 -31 10 2 4 -1 7 -6 7 -6 0 -11 -6 -11 -12 0
-10 -3 -9 -9 1 -5 7 -13 11 -19 7 -6 -3 -13 0 -15 6 -4 10 -8 10 -15 -1 -5 -7
-11 -9 -13 -3 -2 5 -15 13 -28 17 -16 5 -21 4 -17 -4 5 -7 1 -9 -8 -5 -9 3
-16 11 -16 16 0 6 -6 6 -14 -1 -11 -9 -15 -9 -18 1 -4 10 -8 11 -20 1 -17 -14
-18 -60 -2 -71 17 -11 24 -41 12 -48 -6 -4 -8 -3 -5 3 4 6 0 16 -7 22 -12 10
-13 8 -9 -8 3 -13 1 -21 -6 -21 -7 0 -9 5 -5 12 4 7 3 8 -4 4 -7 -4 -12 -14
-12 -22 0 -8 -4 -12 -10 -9 -5 3 -10 -1 -10 -10 0 -9 4 -14 9 -11 5 3 14 -1
21 -9 11 -13 10 -15 -6 -9 -18 5 -18 5 -1 -9 14 -11 15 -16 5 -21 -7 -3 -3 -4
9 -2 19 3 21 1 13 -14 -17 -31 48 -71 77 -48 8 6 18 6 30 -2 16 -10 15 -10 -4
-5 -14 4 -23 2 -23 -4 0 -6 10 -11 22 -11 12 0 18 -3 15 -7 -4 -3 -1 -13 6
-21 8 -10 8 -13 0 -9 -7 4 -15 -4 -21 -21 -7 -22 -6 -33 8 -50 13 -15 20 -18
23 -10 3 7 6 2 6 -11 1 -13 4 -21 7 -18 4 3 15 -5 26 -18 20 -26 67 -57 54
-36 -4 6 -2 11 3 11 6 0 11 -6 11 -14 0 -19 18 -24 62 -20 21 2 40 -1 43 -6 4
-6 -1 -7 -11 -3 -13 5 -12 1 4 -15 12 -12 22 -29 22 -38 0 -9 8 -23 18 -30 16
-13 16 -14 -3 -8 l-20 6 20 -19 c11 -10 25 -31 30 -48 6 -16 17 -30 25 -30 24
-1 40 -14 34 -29 -5 -13 11 -23 56 -33 38 -9 55 -7 56 7 0 27 34 81 46 74 7
-4 8 -3 4 5 -4 6 -12 8 -18 5 -7 -5 -8 -2 -3 5 6 10 3 11 -14 2 -16 -9 -20 -9
-15 2 8 22 37 16 63 -12 14 -16 21 -19 18 -9 -6 17 12 30 46 33 13 2 15 -1 8
-8 -18 -18 -12 -28 8 -15 11 7 17 17 13 23 -3 5 -7 16 -9 24 -2 18 -24 31 -38
23 -5 -3 -4 1 3 10 10 13 10 17 0 22 -7 3 -2 4 12 1 14 -3 19 -2 12 1 -6 3
-10 10 -7 15 4 5 -2 6 -12 2 -15 -6 -16 -4 -5 9 10 13 10 18 1 24 -8 5 -10 3
-4 -7 5 -8 4 -11 -1 -6 -5 5 -9 12 -9 15 -2 21 -18 52 -27 52 -5 0 -7 -7 -4
-16 3 -9 2 -12 -5 -9 -6 4 -8 13 -5 21 6 16 -3 18 -24 4 -10 -6 -11 -10 -2
-10 6 0 12 -7 12 -15 0 -8 5 -15 10 -15 6 0 10 -5 10 -11 0 -8 -5 -8 -15 1
-12 10 -16 9 -21 -5 -4 -9 -1 -20 6 -25 10 -6 9 -9 -1 -13 -9 -4 -7 -6 6 -7
11 -1 23 -2 27 -1 4 0 5 -5 2 -13 -3 -8 0 -17 5 -21 13 -7 5 -25 -11 -25 -5 0
-7 7 -4 16 3 9 1 14 -5 12 -6 -2 -9 -7 -7 -11 4 -11 -31 -31 -39 -23 -4 3 -1
6 5 6 7 0 12 8 12 18 0 14 -2 15 -10 2 -6 -9 -10 -10 -10 -3 0 6 4 15 10 18 5
3 10 11 10 16 0 6 -6 7 -12 3 -9 -5 -9 -2 1 9 7 9 9 17 4 17 -10 0 -10 60 0
77 4 7 0 16 -10 22 -10 6 -13 11 -6 11 14 0 10 35 -5 35 -6 0 -14 4 -19 8 -4
5 -3 8 2 7 21 -5 29 1 15 10 -13 8 -13 10 -1 10 11 0 9 4 -5 15 -18 14 -18 16
-2 28 10 8 13 18 8 26 -6 11 -9 11 -13 0 -4 -8 -3 -1 0 15 4 18 2 27 -4 23 -5
-3 -10 -1 -11 6 -3 36 -8 53 -17 60 -5 5 0 5 12 2 18 -5 22 -3 17 9 -3 9 -13
12 -22 9 -13 -4 -12 -2 3 11 20 16 20 16 -6 12 -22 -3 -25 0 -25 23 1 21 -3
25 -19 23 l-20 -4 20 17 c17 14 18 16 2 11 -10 -3 -16 -2 -13 3 3 5 -1 12 -10
15 -23 9 -27 7 -17 -7 15 -19 14 -60 -1 -54 -7 3 -13 -1 -13 -9 0 -8 6 -13 13
-10 8 3 16 1 19 -5 4 -5 11 -6 17 -3 7 4 8 2 4 -5 -6 -9 -11 -9 -24 1 -13 11
-15 10 -9 -4 3 -10 2 -20 -4 -24 -6 -4 -6 -11 2 -21 15 -18 -3 -33 -33 -28
-12 3 -18 -1 -15 -8 2 -7 12 -11 22 -9 9 2 14 -1 11 -7 -7 -10 10 -24 32 -27
8 -2 11 3 8 11 -2 7 2 16 9 19 11 4 14 -2 11 -24 -4 -31 17 -60 29 -40 3 5 2
10 -2 10 -5 0 -9 9 -9 20 0 29 14 10 21 -29 5 -27 3 -32 -10 -28 -8 4 -15 1
-15 -6 0 -8 -3 -8 -9 2 -5 7 -14 11 -20 7 -7 -5 -9 -1 -4 11 5 14 3 16 -7 6
-7 -6 -18 -9 -25 -7 -7 3 -16 0 -20 -6 -3 -6 -3 -10 2 -9 19 3 33 -2 33 -12 0
-5 -5 -7 -10 -4 -6 3 -13 -1 -16 -9 -3 -9 -12 -16 -20 -16 -15 0 -15 -21 1
-32 6 -5 5 -8 -2 -8 -7 0 -13 -5 -13 -11 0 -5 4 -8 8 -5 5 3 9 -1 9 -9 0 -12
-3 -12 -16 -2 -12 10 -14 9 -8 -5 10 -27 -2 -50 -18 -35 -7 7 -9 14 -4 17 14
9 15 73 1 77 -7 3 -10 -1 -6 -10 3 -8 1 -18 -5 -21 -6 -4 -8 -14 -5 -24 5 -14
4 -15 -5 -2 -10 14 -16 7 -11 -15 1 -5 -2 -7 -6 -3 -9 10 -36 -11 -28 -23 3
-5 -2 -6 -12 -2 -14 5 -14 7 -2 14 18 10 16 51 -2 57 -7 3 -10 0 -6 -7 5 -7 1
-9 -9 -5 -19 8 -15 29 6 29 19 1 38 -26 31 -45 -5 -13 -3 -13 11 -1 17 13 16
15 0 35 -12 13 -13 17 -3 9 13 -10 18 -8 29 8 11 19 10 20 -8 14 -40 -12 -61
-14 -61 -3 0 6 -9 3 -19 -6 -14 -13 -21 -14 -27 -5 -4 7 -3 10 3 6 6 -4 16 0
23 8 7 8 16 13 20 10 4 -3 10 2 14 10 3 8 0 15 -6 15 -6 0 -8 3 -5 6 4 4 13 1
22 -6 15 -12 16 -11 19 10 0 6 8 15 16 20 18 11 21 57 3 71 -9 8 -17 8 -26 0
-8 -6 -17 -8 -20 -4 -4 3 -7 1 -7 -6 0 -7 -6 -11 -14 -8 -7 3 -19 0 -25 -6 -8
-8 -11 -8 -11 2 0 7 -5 9 -10 6 -6 -4 -8 -11 -4 -16 3 -5 2 -9 -3 -8 -4 1 -10
0 -13 -1 -13 -7 -79 -6 -74 1 2 4 12 8 22 8 27 0 49 6 64 19 8 6 18 9 22 5 4
-4 11 -2 15 5 4 7 17 14 29 17 29 5 42 14 42 27 0 7 -4 7 -13 0 -7 -6 -21 -10
-32 -8 -11 2 -26 -3 -33 -11 -8 -7 -18 -11 -23 -8 -5 4 -9 1 -9 -5 0 -6 -4 -8
-10 -5 -5 3 -10 2 -10 -2 0 -5 -10 -10 -22 -10 -18 -2 -20 0 -8 8 12 8 11 9
-5 6 -11 -2 -19 -9 -17 -15 1 -9 -2 -9 -18 0 -11 7 -15 15 -9 19 6 3 11 10 12
15 1 5 4 8 7 7 38 -13 44 -14 31 -5 -9 7 -10 12 -2 16 6 4 11 1 11 -6 0 -9 3
-9 10 2 5 8 10 10 10 4 0 -5 -6 -16 -13 -23 -10 -11 -9 -13 6 -7 10 3 20 6 23
6 2 0 1 8 -2 18 -5 14 -4 15 5 2 9 -13 11 -13 11 0 0 12 2 12 9 1 6 -9 11 -10
15 -2 4 6 1 11 -6 11 -10 0 -9 3 2 9 15 10 33 5 26 -8 -3 -3 4 -7 14 -7 16 0
15 3 -6 23 -14 13 -22 28 -18 35 4 7 3 8 -4 4 -6 -4 -9 -13 -5 -21 3 -8 0 -15
-7 -15 -6 0 -9 4 -6 8 6 10 -25 9 -42 -2 -8 -4 -12 -1 -12 9 0 9 -5 13 -11 9
-8 -4 -8 -9 0 -17 18 -18 12 -28 -9 -17 -16 9 -19 8 -13 -6 5 -13 2 -15 -15
-10 -14 5 -25 1 -35 -14 l-15 -22 -7 21 c-3 12 -11 21 -16 21 -6 0 -8 -4 -4
-9 3 -5 2 -12 -3 -15 -4 -2 -8 5 -8 17 0 16 6 22 23 23 20 2 23 -2 17 -19 -6
-19 -5 -20 10 -8 19 16 20 20 0 46 -13 17 -16 18 -24 5 -6 -8 -10 -10 -10 -3
0 6 -8 9 -19 6 -10 -3 -21 -1 -24 4 -3 4 14 8 36 8 23 -1 51 6 62 15 18 14 19
14 6 -2 -17 -22 1 -24 23 -3 22 23 32 18 10 -6 -10 -12 -26 -18 -37 -15 -11 3
-17 0 -14 -7 6 -20 30 -15 61 12 16 14 26 21 22 14 -3 -6 -2 -14 4 -18 5 -3
10 0 10 7 0 10 3 9 10 -2 5 -8 12 -11 16 -7 4 3 1 13 -6 22 -8 10 -9 15 -1 15
6 0 11 -4 11 -9 0 -5 11 -8 25 -8 13 0 22 3 19 8 -10 17 9 9 22 -9 17 -21 18
-40 2 -24 -17 17 -28 15 -28 -4 0 -10 5 -14 16 -10 10 4 13 2 8 -6 -5 -7 -3
-8 6 -3 8 5 11 4 7 -2 -3 -5 0 -10 8 -10 10 0 12 4 5 12 -8 9 -6 14 5 19 8 3
15 0 15 -7 0 -8 2 -9 8 -1 4 6 15 10 25 8 9 -1 15 2 11 7 -3 5 -9 7 -14 4 -5
-3 -12 -1 -15 5 -5 8 -12 7 -23 -2 -13 -11 -14 -11 -7 1 6 10 4 12 -5 6 -9 -6
-11 -4 -5 5 5 9 4 11 -4 6 -6 -4 -11 -4 -10 1 3 20 -3 34 -23 53 l-22 20 -14
-22 c-7 -13 -11 -16 -9 -8 4 13 -4 16 -40 15 -27 -1 -48 -7 -54 -16 -7 -11 -9
-11 -9 4 0 9 -5 17 -11 17 -5 0 -8 -4 -4 -9 3 -5 1 -12 -4 -16 -6 -3 -8 6 -5
21 3 14 -1 33 -8 42 -12 15 -11 15 10 0 13 -9 32 -13 43 -11 12 3 25 -1 32
-11 12 -17 52 -13 42 4 -3 5 5 6 17 2 15 -4 19 -2 13 7 -4 7 4 5 19 -4 19 -13
26 -14 26 -4 0 8 5 6 14 -6 13 -18 14 -18 25 3 6 12 15 21 19 21 19 -3 33 2
27 11 -3 5 -13 7 -23 3 -10 -3 -8 2 7 12 18 13 20 19 10 26 -7 4 -10 11 -6 16
5 4 12 1 16 -6 6 -9 11 -10 15 -2 4 6 2 11 -3 11 -6 0 -10 3 -10 8 1 4 0 9 -1
12 -7 19 -7 39 1 34 5 -3 7 -10 4 -15 -4 -5 -2 -9 3 -9 6 0 13 -12 17 -27 4
-19 9 -23 14 -14 6 9 11 10 15 2 4 -6 1 -11 -6 -11 -8 0 -7 -4 4 -11 9 -5 15
-16 12 -23 -7 -18 8 -27 26 -15 10 6 11 9 3 9 -7 0 -13 6 -13 13 0 6 14 -2 29
-20 16 -17 31 -30 33 -27 3 2 5 -3 5 -11 0 -11 -4 -12 -13 -4 -8 6 -14 7 -18
0 -8 -12 31 -34 44 -26 6 4 8 11 5 16 -4 5 -4 9 -1 9 3 0 10 -9 16 -20 9 -17
8 -19 -7 -13 -16 6 -17 5 -3 -12 9 -11 10 -16 3 -11 -8 4 -13 1 -13 -9 0 -9 5
-13 10 -10 6 3 10 2 10 -4 0 -5 -6 -11 -12 -14 -7 -2 -10 -8 -6 -12 5 -5 17 0
28 10 21 19 28 41 8 29 -7 -4 -8 -3 -4 5 5 8 15 7 36 -5 24 -15 26 -19 14 -31
-20 -21 -17 -39 4 -20 16 14 19 14 42 -3 14 -10 25 -25 25 -32 0 -7 8 -12 18
-12 9 1 14 -2 11 -8 -3 -5 -14 -6 -24 -3 -13 4 -18 1 -16 -9 3 -18 16 -34 16
-19 0 16 38 23 49 9 7 -9 7 -16 -1 -24 -16 -16 4 -15 21 1 11 10 13 9 7 0 -4
-7 -2 -13 4 -13 6 0 21 -10 33 -21 21 -21 21 -21 1 -11 -15 8 -24 8 -32 0 -16
-16 -15 -25 3 -25 8 0 12 4 9 9 -3 4 0 8 5 8 6 0 11 -8 11 -17 0 -15 2 -16 10
-3 9 14 15 7 11 -14 -1 -5 4 -4 12 2 11 10 17 9 26 -2 7 -8 33 -23 57 -32 56
-21 189 -14 231 13 91 57 472 419 635 603 180 203 224 274 214 353 -3 27 -10
55 -16 62 -6 7 -10 17 -9 21 4 24 -2 36 -16 30 -12 -4 -14 -2 -6 11 8 16 -12
89 -29 103 -3 3 -5 12 -5 20 1 8 -1 20 -4 25 -3 6 -6 16 -7 23 -4 22 -11 24
-33 12 -13 -6 -21 -7 -21 -1 0 5 9 13 20 16 18 6 25 23 21 49 -1 5 5 6 14 3 9
-4 15 -1 15 8 0 9 -6 12 -15 9 -8 -4 -15 -1 -15 6 0 6 -4 9 -10 5 -5 -3 -7
-13 -4 -23 5 -14 3 -14 -10 2 -9 11 -17 15 -17 8 -1 -7 -2 -16 -3 -22 0 -5 -7
-15 -14 -22 -10 -10 -14 -10 -21 1 -6 9 -11 10 -15 2 -4 -6 -2 -11 4 -11 6 0
8 -5 4 -11 -4 -7 1 -7 16 1 18 10 21 9 15 -1 -5 -7 -4 -10 1 -6 5 3 10 -3 10
-13 0 -10 -5 -16 -10 -13 -5 4 -6 1 -2 -6 6 -9 13 -8 31 3 22 15 24 14 20 -4
-3 -13 0 -18 7 -14 7 4 8 2 4 -5 -6 -9 -11 -9 -21 -1 -7 6 -16 7 -18 2 -3 -4
3 -13 14 -20 12 -8 19 -9 19 -1 0 5 5 7 11 3 8 -4 7 -9 -2 -15 -10 -6 -10 -9
-2 -9 7 0 20 -14 29 -31 8 -17 11 -28 5 -25 -6 4 -11 2 -11 -3 0 -6 -17 8 -37
31 -21 23 -37 45 -36 50 2 4 -4 8 -12 8 -9 0 -12 6 -8 17 4 10 2 14 -4 10 -6
-4 -31 16 -56 43 -40 43 -44 55 -15 52 11 -2 18 27 8 33 -6 4 -10 1 -10 -4 0
-13 -47 -15 -55 -2 -3 5 -1 12 5 16 6 4 8 11 5 16 -4 5 2 6 12 2 16 -6 16 -5
4 10 -7 9 -17 15 -20 12 -4 -2 -8 1 -9 8 -2 24 -8 47 -14 53 -4 3 -4 13 0 22
5 14 4 15 -10 2 -11 -10 -13 -19 -6 -27 7 -8 5 -19 -5 -33 -12 -17 -16 -18
-26 -6 -8 9 -8 16 -2 20 6 4 8 13 5 21 -4 8 -10 12 -15 9 -5 -3 -7 -9 -5 -13
3 -4 -1 -8 -8 -8 -8 0 -12 7 -9 14 3 8 2 13 -3 12 -27 -5 -35 2 -28 23 6 20 5
21 -8 10 -12 -10 -17 -10 -26 1 -16 19 2 44 21 29 11 -10 17 -9 28 4 16 20 16
23 -3 36 -10 7 -8 8 5 4 12 -4 16 -2 11 6 -5 7 -3 8 6 3 9 -6 11 -4 5 5 -6 9
-4 11 4 6 9 -6 8 -13 -5 -27 -9 -10 -12 -19 -6 -19 6 0 14 6 19 13 9 14 12 87
3 82 -3 -2 -6 7 -6 21 0 13 4 24 9 24 5 0 7 -6 4 -14 -3 -7 0 -19 6 -25 6 -6
7 -11 2 -11 -6 0 -4 -4 4 -9 12 -8 12 -12 2 -25 -16 -19 -3 -20 22 -2 15 12
16 16 4 28 -7 7 -14 20 -14 28 -1 25 -7 45 -18 52 -6 5 -5 8 3 8 7 0 10 5 7
10 -5 8 -11 8 -19 1 -9 -8 -13 -7 -13 4 0 8 5 11 10 8 6 -4 8 0 4 10 -3 9 -2
19 3 22 5 3 7 12 4 19 -3 8 -1 16 4 19 4 3 8 -9 7 -28 -2 -35 6 -57 21 -56 5
1 10 -8 10 -19 3 -39 4 -42 22 -36 15 5 15 4 2 -6 -8 -7 -17 -22 -18 -32 -3
-16 -1 -18 11 -8 12 10 14 8 13 -10 -1 -13 4 -23 9 -23 5 0 9 3 8 8 -2 4 2 7
7 7 6 0 10 5 10 11 0 5 -5 7 -12 3 -7 -4 -8 -3 -4 5 12 18 27 1 20 -22 -6 -21
-5 -21 12 -5 14 14 15 20 4 32 -7 9 -8 16 -2 16 18 0 23 -32 7 -50 -25 -28
-17 -35 11 -9 18 17 23 19 18 6 -3 -9 -10 -17 -16 -17 -5 0 -6 -5 -2 -12 5 -7
3 -8 -6 -3 -8 5 -11 3 -8 -6 3 -8 12 -13 20 -11 9 1 19 -5 22 -14 7 -19 -2
-37 -14 -29 -5 3 -11 1 -15 -5 -3 -5 0 -10 8 -10 8 0 18 -7 21 -16 3 -8 12
-12 18 -9 7 4 5 0 -4 -8 -10 -8 -18 -17 -18 -21 0 -9 24 -3 33 9 5 6 6 1 3
-10 -5 -15 -1 -21 13 -22 17 -1 18 1 5 25 -10 20 -11 29 -1 41 10 12 9 14 -4
9 -10 -4 -16 -1 -16 8 0 8 3 14 7 14 3 0 6 9 7 20 1 11 -2 18 -7 15 -4 -3 -7
3 -5 12 2 10 4 18 5 18 1 0 3 26 4 57 1 32 5 60 8 64 11 10 30 -7 24 -22 -4
-9 3 -18 17 -24 12 -5 16 -9 9 -9 -7 -1 -10 -6 -7 -11 4 -6 10 -8 14 -6 4 3 8
-5 8 -16 2 -17 -3 -14 -23 13 -13 18 -24 27 -24 20 0 -7 -5 -9 -12 -5 -7 4 -8
3 -4 -5 4 -6 12 -9 17 -6 8 6 13 -8 7 -20 -5 -7 36 -34 44 -29 5 3 8 14 8 25
0 10 4 19 10 19 5 0 6 -8 3 -17 -6 -16 -5 -16 10 -4 18 14 14 31 -8 31 -8 0
-17 4 -20 10 -3 5 0 7 9 4 11 -4 14 0 11 15 -2 11 1 24 7 27 7 4 8 2 4 -4 -4
-7 -2 -12 5 -12 6 0 9 8 6 19 -3 15 -1 18 11 14 10 -4 13 -2 8 5 -5 8 -2 10 8
6 11 -4 16 0 16 11 0 10 -5 14 -12 9 -7 -4 -9 -3 -5 1 16 18 35 13 30 -9 -4
-18 -3 -19 7 -6 10 13 11 12 6 -4 -5 -14 -2 -17 10 -12 8 3 19 6 23 6 4 0 7
12 7 26 0 18 -11 34 -33 51 l-33 25 -32 -33 c-18 -18 -25 -30 -16 -26 12 4 15
2 11 -9 -4 -11 -9 -12 -19 -3 -8 6 -11 15 -8 20 3 5 0 9 -6 9 -6 0 -8 4 -5 10
3 6 -1 7 -10 4 -10 -4 -15 -2 -13 7 2 8 -2 13 -9 12 -6 -1 -14 4 -17 12 -3 8
-1 15 5 15 6 0 7 5 4 10 -3 6 0 10 7 10 11 0 11 2 0 9 -7 4 -12 12 -11 17 4
20 -3 33 -32 63 -23 24 -37 32 -55 28 -14 -2 -27 -1 -29 3 -7 12 -76 4 -85 -9
-5 -9 -9 -8 -13 4 -4 9 -3 13 3 10 6 -3 10 -1 10 5 0 6 4 9 8 6 4 -2 14 -1 21
4 9 5 2 7 -18 6 -17 0 -32 -4 -32 -8z m187 -60 c16 -18 22 -27 13 -20 -9 6
-19 10 -22 7 -4 -3 -5 -2 -3 1 3 3 -1 12 -7 19 -9 9 -16 10 -25 3 -9 -8 -11
-7 -6 6 9 23 16 20 50 -16z m-185 -2 c-6 -7 -8 -15 -6 -18 11 -11 12 -98 1
-98 -6 0 -6 -4 1 -11 6 -6 9 -18 6 -27 -5 -11 -3 -13 7 -7 9 5 11 4 6 -3 -10
-16 -37 -15 -33 1 1 6 7 15 12 19 6 5 5 8 -3 8 -7 0 -12 8 -10 18 2 9 -4 18
-12 18 -8 1 -21 2 -29 3 -11 1 -10 5 5 15 21 16 17 25 -16 31 -12 2 -25 7 -29
10 -3 3 9 4 27 0 18 -3 31 -2 30 2 -2 5 2 9 7 11 6 1 11 -2 11 -8 1 -5 2 -14
3 -20 0 -5 6 -10 12 -10 8 0 9 4 0 13 -6 8 -8 17 -4 20 3 4 -2 17 -13 29 -10
12 -14 18 -7 15 6 -4 14 -3 18 3 4 6 11 8 16 4 6 -4 6 -10 0 -18z m52 -21 c-3
-9 -8 -14 -10 -11 -3 3 -2 9 2 15 9 16 15 13 8 -4z m97 0 c-7 -8 -17 -15 -23
-15 -6 0 -2 7 9 15 25 19 30 19 14 0z m33 -26 c3 -12 10 -18 16 -14 6 3 11 1
11 -4 0 -6 -5 -11 -11 -11 -5 0 -7 -5 -3 -12 4 -6 3 -8 -4 -4 -6 3 -13 2 -17
-4 -4 -6 -11 -7 -17 -4 -7 4 -8 2 -4 -5 4 -6 16 -9 26 -6 24 8 37 -25 15 -41
-9 -7 -12 -15 -6 -18 5 -3 19 6 30 21 12 16 18 20 15 11 -4 -12 -1 -18 7 -18
9 -1 8 -5 -5 -15 -10 -8 -23 -12 -27 -9 -5 3 -9 1 -9 -4 0 -19 14 -21 38 -6
13 9 21 11 18 5 -4 -6 0 -11 8 -11 20 0 20 -10 1 -36 -8 -12 -12 -23 -10 -26
2 -2 -4 -4 -14 -5 -16 -1 -15 2 6 23 14 14 22 28 18 32 -3 4 -15 -4 -26 -18
-18 -23 -19 -23 -9 -2 7 15 7 22 0 22 -5 0 -10 -4 -10 -10 0 -14 -16 -12 -33
5 -15 15 -27 11 -23 -8 2 -7 1 -9 -1 -4 -3 4 -9 5 -14 1 -5 -3 -9 0 -9 6 0 6
-5 8 -12 4 -9 -5 -9 -2 1 9 7 9 10 17 6 17 -5 0 -1 8 7 18 25 29 29 40 16 48
-7 4 -10 4 -6 -1 9 -10 -10 -35 -26 -35 -6 0 -4 6 5 13 9 7 15 21 13 31 -1 10
7 27 19 37 12 10 17 18 12 19 -6 0 -17 -6 -24 -12 -11 -10 -13 -10 -7 0 4 7 2
12 -5 12 -7 0 -4 7 7 15 26 19 31 19 37 -6z m-277 -58 c-4 -5 0 -11 6 -14 7
-2 9 -8 5 -13 -9 -10 -28 16 -21 28 3 4 7 8 10 8 3 0 3 -4 0 -9z m482 -72
c-11 -7 -11 -9 0 -9 7 0 10 -5 7 -11 -9 -14 -16 -6 -19 25 -3 22 -1 24 11 14
11 -9 11 -13 1 -19z m-273 3 c-3 -3 -11 0 -18 7 -9 10 -8 11 6 5 10 -3 15 -9
12 -12z m-55 -52 c0 -5 -2 -10 -4 -10 -3 0 -8 5 -11 10 -3 6 -1 10 4 10 6 0
11 -4 11 -10z m-166 -133 c3 3 6 -2 6 -12 0 -15 -2 -15 -16 -4 -13 11 -18 10
-32 -8 l-17 -22 -27 23 -26 24 25 0 c15 0 20 -3 13 -8 -7 -4 -8 -10 -3 -13 5
-3 15 -2 23 4 8 5 11 9 7 9 -5 0 -5 5 -2 10 4 7 12 7 24 0 10 -5 21 -6 25 -3z
m118 -172 c3 -14 2 -27 -1 -30 -4 -2 -8 10 -9 26 -3 36 4 38 10 4z m202 -98
c4 4 4 0 1 -9 -11 -28 -35 -31 -33 -3 2 16 6 21 14 15 6 -6 14 -7 18 -3z m61
-217 c3 -5 1 -10 -4 -10 -6 0 -11 5 -11 10 0 6 2 10 4 10 3 0 8 -4 11 -10z
m-1611 -595 c13 -19 13 -23 2 -19 -8 3 -16 14 -19 25 -7 25 -3 24 17 -6z m26
-59 c0 -3 -4 -8 -10 -11 -5 -3 -10 -1 -10 4 0 6 5 11 10 11 6 0 10 -2 10 -4z
m-374 -71 c-1 -13 -4 -27 -7 -30 -5 -4 -4 41 0 53 4 10 8 -2 7 -23z m28 -30
c3 -8 1 -15 -4 -15 -6 0 -10 7 -10 15 0 8 2 15 4 15 2 0 6 -7 10 -15z m49 -1
c4 -1 10 -2 15 -3 4 -1 -2 -8 -12 -16 -14 -11 -16 -15 -5 -15 12 0 12 -2 -1
-10 -9 -5 -19 -5 -26 0 -6 6 -13 7 -16 4 -3 -3 -9 -1 -12 4 -3 5 4 9 16 8 12
0 23 5 26 13 2 8 0 11 -5 8 -5 -3 -10 0 -10 8 0 8 5 11 11 7 6 -4 14 -7 19 -8z
m127 -4 c0 -5 -4 -10 -10 -10 -5 0 -10 5 -10 10 0 6 5 10 10 10 6 0 10 -4 10
-10z m55 -40 c3 -5 1 -10 -4 -10 -6 0 -11 5 -11 10 0 6 2 10 4 10 3 0 8 -4 11
-10z m-255 -80 c0 -5 -5 -10 -11 -10 -5 0 -7 5 -4 10 3 6 8 10 11 10 2 0 4 -4
4 -10z m485 0 c-3 -5 -12 -10 -18 -10 -7 0 -6 4 3 10 19 12 23 12 15 0z m-270
-18 c-9 -9 -35 -11 -35 -3 0 14 12 20 26 14 8 -3 12 -8 9 -11z m250 -10 c-3
-3 -11 0 -18 7 -9 10 -8 11 6 5 10 -3 15 -9 12 -12z m-449 -14 c-1 -17 4 -23
20 -22 13 0 20 -5 18 -11 -6 -14 -34 -16 -34 -3 0 5 -4 7 -9 4 -5 -3 -15 1
-22 10 -10 12 -10 15 1 12 8 -2 15 3 16 10 2 18 4 22 8 22 2 0 3 -10 2 -22z
m454 -12 c0 -3 -4 -8 -10 -11 -5 -3 -10 -1 -10 4 0 6 5 11 10 11 6 0 10 -2 10
-4z m-30 -21 c0 -8 -4 -15 -8 -15 -5 0 -9 7 -9 15 0 8 4 15 9 15 4 0 8 -7 8
-15z m-120 -25 c0 -5 -2 -10 -4 -10 -3 0 -8 5 -11 10 -3 6 -1 10 4 10 6 0 11
-4 11 -10z m-20 -40 c0 -5 -2 -10 -4 -10 -3 0 -8 5 -11 10 -3 6 -1 10 4 10 6
0 11 -4 11 -10z m-200 -60 c0 -5 -2 -10 -4 -10 -3 0 -8 5 -11 10 -3 6 -1 10 4
10 6 0 11 -4 11 -10z m57 -7 c0 -9 -4 -10 -14 -2 -7 6 -13 12 -13 14 0 1 6 2
13 2 8 0 14 -6 14 -14z m53 -38 c0 -2 -6 -5 -13 -8 -8 -3 -14 1 -14 8 0 7 6
11 14 8 7 -3 13 -6 13 -8z m117 -71 c-3 -3 -12 -4 -19 -1 -8 3 -5 6 6 6 11 1
17 -2 13 -5z m108 -4 c3 -5 1 -10 -4 -10 -6 0 -11 5 -11 10 0 6 2 10 4 10 3 0
8 -4 11 -10z m-82 -13 c3 -8 2 -20 -3 -26 -5 -9 -7 -4 -7 13 0 29 2 32 10 13z
m98 -34 c12 -16 12 -17 -2 -6 -9 7 -19 10 -22 6 -4 -3 -7 -1 -7 5 0 17 16 15
31 -5z m73 -11 c3 -5 -1 -9 -9 -9 -8 0 -15 4 -15 9 0 4 4 8 9 8 6 0 12 -4 15
-8z m-87 -8 c-3 -3 -12 -4 -19 -1 -8 3 -5 6 6 6 11 1 17 -2 13 -5z m210 -26
c-3 -7 -5 -2 -5 12 0 14 2 19 5 13 2 -7 2 -19 0 -25z m-237 12 c8 -5 11 -10 5
-10 -5 0 -17 5 -25 10 -8 5 -10 10 -5 10 6 0 17 -5 25 -10z m67 -13 c1 -11 1
-18 0 -16 -2 2 -8 11 -15 20 -9 12 -9 16 1 16 7 0 14 -9 14 -20z m-12 -28 c4
-11 11 -17 16 -14 5 4 13 -5 19 -19 5 -14 15 -26 21 -26 7 0 9 -3 6 -6 -4 -4
-13 -1 -21 5 -11 10 -20 10 -36 1 -12 -6 -24 -9 -27 -6 -3 3 6 10 21 15 14 6
26 16 26 22 0 8 -6 7 -17 -2 -9 -8 -14 -9 -10 -3 4 7 -2 23 -13 35 -16 20 -19
21 -20 7 0 -10 -5 -18 -10 -18 -7 0 -7 6 0 20 12 23 36 17 45 -11z m58 14 c-5
-12 -3 -14 8 -8 8 5 11 4 6 0 -12 -13 -36 -15 -44 -3 -3 6 -1 8 4 5 6 -4 13 0
17 8 3 8 8 15 10 15 3 0 2 -7 -1 -17z m-123 -8 c0 -8 -4 -15 -10 -15 -5 0 -7
7 -4 15 4 8 8 15 10 15 2 0 4 -7 4 -15z m295 -15 c3 -5 1 -10 -4 -10 -6 0 -11
5 -11 10 0 6 2 10 4 10 3 0 8 -4 11 -10z m-245 -10 c0 -5 -5 -10 -11 -10 -5 0
-7 5 -4 10 3 6 8 10 11 10 2 0 4 -4 4 -10z m84 -15 c3 -8 1 -15 -4 -15 -6 0
-10 7 -10 15 0 8 2 15 4 15 2 0 6 -7 10 -15z m-114 -29 c0 -3 -4 -8 -10 -11
-5 -3 -10 -1 -10 4 0 6 5 11 10 11 6 0 10 -2 10 -4z m153 -11 c-3 -9 -8 -14
-10 -11 -3 3 -2 9 2 15 9 16 15 13 8 -4z m-58 -25 c3 -6 -1 -7 -9 -4 -18 7
-21 14 -7 14 6 0 13 -4 16 -10z m37 -12 c-6 -6 -8 -18 -5 -27 4 -13 3 -14 -5
-1 -7 9 -7 19 -2 26 6 6 6 15 2 19 -4 5 -1 5 6 0 9 -5 10 -11 4 -17z m-72 -13
c11 -13 10 -14 -4 -9 -9 3 -16 10 -16 15 0 13 6 11 20 -6z m35 -5 c10 -11 16
-20 13 -20 -3 0 -13 9 -23 20 -10 11 -16 20 -13 20 3 0 13 -9 23 -20z"/>
<path d="M1728 2242 c-11 -15 -11 -16 4 -4 13 10 17 10 20 0 3 -8 6 -9 11 -1
12 18 -21 23 -35 5z"/>
<path d="M1939 2243 c-13 -16 -12 -17 4 -4 9 7 17 15 17 17 0 8 -8 3 -21 -13z"/>
<path d="M1950 2200 c0 -7 -8 -22 -17 -32 -19 -22 -26 -48 -12 -48 5 0 12 7
15 15 5 12 10 10 26 -8 18 -19 17 -18 -1 10 -20 30 -20 32 -4 42 14 8 16 12 6
22 -11 11 -13 10 -13 -1z"/>
<path d="M1846 2388 c3 -5 9 -7 12 -4 3 3 10 2 16 -4 7 -5 17 -5 26 2 13 8 12
9 -2 5 -9 -3 -19 -3 -22 1 -11 10 -36 11 -30 0z"/>
<path d="M1660 2342 c0 -7 -8 -12 -17 -12 -15 0 -16 -2 -3 -10 10 -6 17 -4 23
6 5 9 6 18 3 21 -3 4 -6 1 -6 -5z"/>
<path d="M1757 2123 c-2 -5 -3 -16 -1 -25 2 -10 5 -25 7 -33 2 -8 6 -17 10
-21 3 -4 4 4 1 17 -3 13 -6 34 -7 47 -1 23 -3 27 -10 15z"/>
<path d="M2094 2094 c-10 -9 -13 -13 -6 -9 6 3 12 4 12 1 0 -3 -11 -11 -25
-19 -23 -12 -24 -14 -11 -32 12 -17 17 -18 28 -7 11 11 10 12 -4 7 -10 -4 -18
-3 -18 2 0 10 42 38 53 35 10 -3 9 26 -2 32 -4 3 -17 -2 -27 -10z"/>
<path d="M2140 2080 c-6 -11 -15 -18 -21 -15 -9 6 -12 -3 -12 -37 0 -10 -3
-16 -7 -13 -13 8 -51 -27 -45 -42 4 -13 3 -14 -9 -4 -10 8 -16 9 -21 2 -4 -7
-15 -5 -30 5 -14 9 -23 20 -20 24 3 4 -1 10 -8 13 -8 3 -14 -1 -14 -9 0 -8 5
-14 11 -14 6 0 3 -5 -7 -11 -18 -10 -18 -12 -1 -30 9 -10 12 -19 6 -19 -11 0
-11 -25 1 -36 4 -4 1 -14 -6 -22 -10 -13 -9 -14 2 -8 10 7 12 4 7 -12 -4 -11
-2 -23 3 -26 6 -4 8 -13 4 -22 -4 -12 -8 -12 -21 -2 -12 10 -14 10 -8 1 4 -7
2 -13 -3 -13 -6 0 -11 5 -11 11 0 5 -5 7 -11 3 -8 -5 -8 -9 1 -14 9 -5 9 -9 1
-14 -16 -10 -14 -26 4 -26 8 0 15 -4 15 -8 0 -5 -7 -9 -15 -9 -8 0 -15 4 -15
9 0 4 -3 7 -7 7 -28 -4 -35 1 -23 17 8 8 9 14 4 13 -21 -4 -26 2 -13 19 13 15
12 16 -3 4 -15 -12 -17 -11 -13 8 3 18 2 20 -10 10 -10 -8 -15 -8 -21 1 -4 8
-3 9 4 5 7 -4 12 -5 12 -2 0 3 -9 10 -19 16 -14 7 -22 7 -27 -2 -5 -7 -3 -8 6
-3 10 6 12 4 7 -7 -3 -10 3 -24 14 -34 20 -18 20 -18 -2 -34 -21 -17 -21 -17
0 -15 11 1 24 4 27 8 4 4 13 2 20 -4 17 -14 -1 -53 -19 -44 -7 4 -3 -1 7 -9
11 -9 16 -16 11 -16 -5 0 4 -13 20 -30 27 -28 45 -31 45 -8 0 5 -6 8 -14 5 -7
-3 -20 3 -29 13 -14 16 -14 19 -1 24 9 3 13 10 10 15 -7 10 22 24 34 16 4 -3
11 2 14 11 3 8 10 13 15 9 5 -3 13 -1 16 5 5 8 11 7 21 -1 11 -9 14 -8 15 2 0
8 5 4 11 -8 11 -23 38 -32 38 -12 0 5 5 7 10 4 6 -4 8 -10 5 -15 -3 -4 3 -7
12 -6 10 2 28 -1 41 -5 14 -6 21 -5 17 1 -3 5 6 3 21 -4 14 -8 33 -13 42 -11
9 2 21 4 26 4 5 1 3 8 -4 16 -11 13 -10 14 5 9 14 -6 16 -4 10 6 -5 9 -4 11 4
6 9 -6 8 -14 -4 -33 -10 -14 -12 -23 -7 -19 6 3 13 2 17 -4 4 -6 10 -8 15 -5
5 3 20 0 35 -7 20 -9 28 -9 38 2 9 10 9 11 0 6 -7 -4 -13 -2 -13 3 0 6 5 11
11 11 5 0 7 5 4 10 -3 6 -1 10 6 10 7 0 4 7 -7 16 -10 8 -14 13 -7 10 6 -4 15
-1 19 5 4 7 3 9 -4 5 -7 -4 -9 3 -7 21 2 16 4 35 5 43 1 11 4 9 11 -5 8 -17 9
-16 6 7 -2 15 0 33 5 40 7 10 8 8 4 -4 -3 -10 -1 -18 5 -18 6 0 7 -5 3 -12 -4
-7 -3 -8 4 -4 8 5 8 15 2 32 -6 14 -8 30 -4 35 3 5 0 9 -5 9 -6 0 -11 7 -11
15 0 8 -4 15 -10 15 -5 0 -10 7 -10 15 0 10 -10 14 -39 12 -22 -2 -43 -6 -46
-9 -4 -4 -13 -4 -21 -1 -9 3 -14 0 -12 -8 2 -8 -5 -14 -14 -14 -9 0 -20 -4
-24 -8 -4 -4 -2 -7 4 -7 7 0 12 -5 12 -11 0 -8 -5 -7 -15 1 -17 14 -16 14 -34
-15 -9 -14 -11 -15 -7 -3 7 22 -10 33 -18 12 -4 -10 -12 -14 -22 -10 -12 5
-15 2 -10 -10 3 -8 6 -20 6 -25 0 -6 5 -7 10 -4 6 4 8 11 5 16 -4 5 -1 9 4 9
13 0 14 -10 2 -29 -10 -16 -31 -6 -31 15 0 8 -5 12 -10 9 -7 -4 -7 -12 0 -24
5 -10 6 -21 3 -25 -3 -3 0 -6 8 -6 11 -1 11 -2 -2 -10 -13 -7 -29 -8 -59 0 -3
0 9 7 25 15 17 7 24 14 17 14 -7 1 -10 6 -6 12 4 7 1 10 -7 7 -8 -3 -13 -10
-12 -15 1 -5 -7 -9 -18 -9 -19 0 -19 1 -3 13 10 7 13 13 8 13 -6 0 -11 6 -12
13 -3 33 -10 51 -28 65 -13 10 -15 16 -6 19 6 3 10 8 8 12 -3 4 4 12 15 19 11
7 19 8 19 2 0 -5 -5 -10 -11 -10 -5 0 -8 -4 -5 -9 4 -5 1 -11 -6 -13 -10 -4
-9 -9 3 -21 18 -18 31 -13 22 9 -3 8 1 14 8 14 7 0 10 -3 6 -6 -3 -4 1 -13 9
-21 19 -19 31 -9 14 12 -8 10 -9 15 -1 15 6 0 11 -4 11 -9 0 -5 8 -8 18 -6 9
2 19 4 21 4 3 1 -4 8 -15 17 -18 14 -18 15 4 4 16 -8 22 -8 22 1 0 7 9 9 25 5
19 -5 23 -3 19 9 -3 8 -11 12 -17 8 -6 -4 -7 -1 -2 7 6 10 11 10 20 -4 11 -14
14 -14 18 -2 3 8 1 17 -6 20 -7 2 -4 5 6 5 11 1 15 6 11 13 -4 6 -3 8 3 5 6
-4 16 0 23 8 12 14 7 20 -15 15 -5 -1 -7 2 -3 6 4 4 0 13 -10 21 -15 13 -15
13 4 4 11 -5 27 -17 34 -26 11 -13 10 -18 -5 -29 -17 -12 -17 -13 4 -19 19 -5
21 -9 12 -26 -15 -27 -14 -36 2 -22 8 6 17 8 20 4 13 -12 6 22 -8 40 -7 11
-12 24 -9 30 5 16 -5 29 -46 57 -45 32 -67 34 -80 10z m11 -17 c-12 -20 -14
-14 -5 12 4 9 9 14 11 11 3 -2 0 -13 -6 -23z m36 12 c0 -8 -4 -12 -9 -9 -5 3
-6 10 -3 15 9 13 12 11 12 -6z m-4 -50 c-3 -9 -8 -14 -10 -11 -3 3 -2 9 2 15
9 16 15 13 8 -4z m-86 -56 c-9 -6 -15 -14 -13 -18 3 -4 -5 -8 -17 -8 -20 -2
-20 -1 -4 8 9 6 15 15 11 20 -3 5 0 8 8 7 7 -2 12 4 10 12 -3 12 -1 13 10 2
11 -11 10 -15 -5 -23z m-108 -31 c-8 -15 -7 -24 7 -39 15 -17 16 -22 4 -29
-16 -10 -33 -3 -25 10 3 5 1 11 -5 15 -6 4 -7 12 0 24 6 12 5 22 -2 29 -16 16
0 36 18 21 10 -8 11 -16 3 -31z m207 -80 c4 -7 3 -8 -4 -4 -7 4 -12 2 -12 -5
0 -7 -3 -10 -6 -6 -6 5 3 27 11 27 2 0 7 -5 11 -12z m-170 -25 c-2 -9 -11 -19
-21 -23 -17 -6 -18 -7 -1 -13 10 -4 23 -4 28 0 6 3 8 1 5 -4 -4 -6 0 -16 8
-23 8 -7 15 -9 15 -5 0 4 7 2 15 -5 8 -7 12 -17 8 -23 -3 -5 -1 -7 5 -3 6 3
13 2 17 -4 4 -6 11 -8 16 -5 5 4 9 1 9 -4 0 -14 -33 -9 -53 7 -11 9 -17 10
-22 2 -3 -6 -11 -8 -16 -4 -5 3 -7 10 -4 15 6 9 -8 13 -34 9 -9 -1 -12 4 -7
17 4 12 0 9 -13 -7 -18 -22 -21 -23 -26 -7 -4 9 -12 14 -19 10 -6 -4 -5 0 2 9
7 9 22 15 32 13 12 -2 18 2 18 13 -1 24 6 46 17 54 13 10 24 1 21 -19z m322 0
c-3 -17 -38 -28 -38 -11 0 6 7 8 15 4 9 -3 15 0 15 9 0 8 3 15 6 15 3 0 4 -7
2 -17z m-51 -23 c8 -11 8 -19 1 -28 -8 -9 -5 -12 13 -10 16 2 24 -2 24 -12 0
-11 -12 -15 -45 -16 -73 -2 -100 -15 -79 -40 7 -9 5 -11 -8 -9 -10 2 -22 4
-28 5 -5 0 -2 5 8 11 21 12 22 26 2 26 -8 0 -15 -5 -15 -10 0 -5 -8 -6 -17 -2
-10 4 -22 8 -28 9 -35 6 -47 36 -15 36 14 0 18 5 14 18 -5 16 -5 16 6 0 10
-17 45 -14 34 3 -3 5 3 6 12 2 13 -5 15 -3 9 7 -5 9 -4 11 4 6 6 -4 8 -12 5
-18 -5 -7 -1 -9 9 -5 10 4 18 -1 22 -14 4 -10 11 -19 16 -19 13 0 11 14 -3 29
-11 10 -10 15 4 25 10 7 15 15 12 18 -3 4 3 5 13 5 10 -1 23 -9 30 -17z m-451
-2 c5 4 6 3 1 -2 -4 -5 1 -19 10 -30 10 -12 14 -18 9 -14 -5 4 -16 2 -25 -4
-13 -10 -14 -10 -4 2 10 11 9 19 -10 39 -12 14 -15 20 -6 13 9 -6 20 -8 25 -4z
m54 -82 c0 -3 -4 -8 -10 -11 -5 -3 -10 -1 -10 4 0 6 5 11 10 11 6 0 10 -2 10
-4z m410 -10 c-6 -8 -18 -12 -26 -9 -22 8 -16 18 12 21 22 2 24 0 14 -12z
m-43 -38 c-3 -8 -6 -5 -6 6 -1 11 2 17 5 13 3 -3 4 -12 1 -19z"/>
<path d="M1970 1960 c0 -5 5 -10 11 -10 5 0 7 5 4 10 -3 6 -8 10 -11 10 -2 0
-4 -4 -4 -10z"/>
<path d="M1979 1897 c6 -8 7 -18 3 -22 -4 -5 -1 -5 6 -1 10 6 10 11 1 22 -6 8
-14 14 -16 14 -3 0 0 -6 6 -13z"/>
<path d="M2003 1777 c0 -8 6 -14 14 -14 9 0 10 4 2 14 -6 7 -12 13 -14 13 -1
0 -2 -6 -2 -13z"/>
<path d="M1957 1763 c3 -7 6 -13 8 -13 2 0 5 6 8 13 3 8 -1 14 -8 14 -7 0 -11
-6 -8 -14z"/>
<path d="M2043 1744 c0 -9 4 -11 12 -4 7 5 14 9 16 7 2 -1 3 0 1 2 -7 11 -29
7 -29 -5z"/>
<path d="M2266 1798 c5 -8 2 -9 -9 -5 -10 3 -17 2 -17 -3 0 -16 19 -21 40 -10
22 12 18 30 -6 30 -9 0 -12 -5 -8 -12z"/>
<path d="M2168 1775 c-5 -6 -28 -12 -50 -14 -5 -1 -8 -5 -8 -10 0 -4 12 -6 26
-3 21 4 25 2 19 -9 -7 -11 -6 -12 6 -3 8 6 26 10 41 9 18 -1 25 2 21 12 -3 7
-9 13 -13 13 -5 0 -15 2 -22 5 -8 3 -17 3 -20 0z m22 -13 c0 -5 -7 -9 -15 -9
-8 0 -12 4 -9 9 3 4 9 8 15 8 5 0 9 -4 9 -8z"/>
<path d="M2266 1762 c-2 -4 4 -8 14 -8 10 0 16 4 14 8 -3 4 -9 8 -14 8 -5 0
-11 -4 -14 -8z"/>
<path d="M2310 1760 c0 -5 5 -10 10 -10 6 0 10 5 10 10 0 6 -4 10 -10 10 -5 0
-10 -4 -10 -10z"/>
<path d="M1955 2080 c-3 -5 -1 -10 4 -10 6 0 11 5 11 10 0 6 -2 10 -4 10 -3 0
-8 -4 -11 -10z"/>
<path d="M1733 1968 c-48 -40 -60 -55 -51 -65 8 -9 7 -13 -1 -13 -7 0 -9 -5
-5 -11 4 -8 9 -7 15 2 4 7 5 17 3 21 -3 4 0 8 5 8 6 0 10 6 9 13 -2 7 6 12 19
11 12 0 20 3 17 8 -3 4 3 5 13 2 15 -5 16 -4 3 6 -13 10 -13 11 3 6 9 -3 17
-1 17 4 0 6 -8 10 -17 10 -15 0 -16 2 -3 10 8 5 18 10 21 10 9 0 7 -34 -4 -47
-6 -9 -6 -13 1 -13 23 0 34 34 19 58 -5 6 -5 17 -2 22 11 18 1 11 -62 -42z"/>
<path d="M1824 1978 c-5 -7 -9 -15 -9 -18 -1 -14 -33 -49 -39 -42 -4 4 -20 7
-36 8 -22 0 -27 -4 -25 -18 2 -10 0 -18 -6 -18 -5 0 -9 -4 -9 -9 0 -5 11 -8
25 -8 14 0 25 3 25 8 0 5 -4 9 -10 9 -5 0 -10 5 -10 11 0 8 4 8 15 -1 8 -6 18
-9 23 -6 6 3 15 -1 22 -9 9 -11 9 -15 1 -15 -7 0 -9 -5 -6 -11 4 -6 9 -8 12
-5 3 3 15 0 27 -6 11 -7 26 -13 31 -13 6 -1 9 -6 8 -13 -2 -6 4 -9 12 -6 18 7
20 -7 3 -25 -11 -10 -10 -12 2 -9 10 2 14 -4 12 -17 -2 -19 -2 -19 9 -2 6 10
8 21 5 24 -3 3 -1 14 5 24 7 15 7 19 -3 17 -8 -2 -12 5 -11 17 1 12 -7 26 -18
34 -17 10 -24 10 -38 -3 -15 -14 -19 -14 -34 4 -20 24 -22 37 -3 21 11 -9 13
-7 12 11 -3 40 27 50 44 16 10 -21 10 -21 -3 -5 -17 21 -27 22 -27 3 0 -22 33
-29 46 -11 8 10 14 12 17 5 3 -6 4 -5 3 2 -2 7 -9 12 -15 10 -6 -1 -20 12 -30
29 -14 23 -21 27 -27 17z m46 -119 c0 -5 4 -7 10 -4 6 3 7 -1 4 -10 -6 -14 -8
-14 -20 2 -9 12 -13 14 -14 5 0 -7 -5 -10 -11 -6 -8 4 -7 9 2 15 19 12 29 11
29 -2z"/>
<path d="M2223 1983 c11 -10 -37 -53 -54 -48 -10 3 -21 -1 -26 -9 -4 -8 -15
-16 -23 -18 -8 -2 -21 -11 -28 -21 -13 -17 -15 -17 -26 -2 -11 15 -13 15 -25
1 -9 -11 -10 -16 -2 -16 6 0 10 -3 10 -7 -1 -5 -1 -15 0 -23 1 -12 3 -12 10
-2 4 8 12 14 17 15 5 1 8 5 7 10 -3 7 11 11 37 8 13 -2 13 -1 0 8 -13 9 -12
11 5 12 11 1 24 1 28 0 4 -1 18 4 30 11 12 7 28 11 36 9 7 -1 10 2 7 8 -4 5
-2 12 4 16 5 3 14 14 20 24 8 15 5 20 -11 24 -12 3 -19 3 -16 0z m17 -26 c0
-2 -15 -13 -32 -26 l-33 -22 28 25 c26 24 37 31 37 23z m-172 -88 c9 -12 9
-16 -1 -16 -7 0 -14 9 -14 20 -1 11 -1 18 0 16 2 -2 8 -11 15 -20z"/>
<path d="M2306 1948 c3 -5 10 -6 15 -3 13 9 11 12 -6 12 -8 0 -12 -4 -9 -9z"/>
<path d="M1636 1921 c-4 -5 -2 -12 3 -15 5 -4 12 -2 15 3 4 5 2 12 -3 15 -5 4
-12 2 -15 -3z"/>
<path d="M1823 1888 c-1 -11 1 -16 5 -12 4 5 11 12 15 15 5 3 2 9 -5 12 -9 3
-14 -3 -15 -15z"/>
<path d="M1746 1852 c2 -3 -1 -11 -7 -19 -8 -9 -8 -13 -1 -13 16 0 26 20 15
30 -6 4 -8 5 -7 2z"/>
<path d="M1910 1700 c0 -5 7 -10 16 -10 8 0 12 5 9 10 -3 6 -10 10 -16 10 -5
0 -9 -4 -9 -10z"/>
<path d="M1967 1563 c10 -10 26 -27 35 -38 10 -11 17 -15 18 -8 0 7 -12 24
-27 38 -31 28 -55 35 -26 8z"/>
<path d="M472 778 c-8 -8 -8 -15 -1 -24 7 -9 5 -16 -10 -24 -12 -6 -21 -7 -21
-3 0 4 -7 -3 -16 -15 -13 -18 -19 -21 -30 -11 -8 6 -14 8 -14 5 0 -4 -10 -1
-22 5 -22 11 -21 10 2 -13 14 -13 31 -34 39 -45 10 -15 23 -20 47 -19 18 1 30
-2 27 -7 -3 -5 2 -14 11 -20 14 -10 12 -12 -16 -14 -49 -4 -58 -6 -53 -13 2
-3 0 -12 -5 -20 -11 -18 15 -50 42 -50 21 0 23 11 6 28 -9 9 -9 12 0 13 20 2
52 6 58 8 4 0 1 7 -5 15 -9 11 -9 16 0 22 9 5 8 10 -3 18 -8 6 -15 19 -16 29
-4 42 -6 47 -14 47 -4 0 -8 -5 -8 -10 0 -6 -7 -10 -16 -8 -10 2 -19 -2 -21 -9
-3 -8 5 -10 24 -7 15 3 25 3 22 -1 -14 -13 -50 -13 -56 0 -3 8 -9 12 -14 9 -5
-3 -6 2 -2 11 5 13 7 14 14 3 7 -11 9 -11 9 1 0 8 6 11 18 7 14 -5 14 -4 -2 9
-11 8 -15 15 -10 15 6 0 16 -6 23 -12 11 -11 13 -10 8 4 -3 10 -1 20 5 24 7 5
8 2 3 -6 -6 -9 -4 -11 5 -5 9 5 11 4 6 -4 -4 -6 0 -14 9 -17 12 -5 13 -9 5
-14 -8 -5 -8 -9 2 -13 17 -6 21 21 6 40 -11 14 7 27 25 18 6 -4 3 1 -8 10 -15
13 -16 19 -7 22 10 4 8 9 -5 19 -22 17 -26 17 -41 2z m14 -7 c-3 -5 1 -14 9
-21 16 -13 10 -35 -6 -24 -5 3 -7 9 -4 14 3 5 1 11 -5 15 -10 6 -5 25 6 25 3
0 3 -4 0 -9z m13 -195 c9 -11 6 -13 -18 -11 -30 2 -47 -15 -35 -38 3 -7 -1 -4
-9 5 -8 10 -16 17 -18 15 -3 -1 4 6 14 15 11 10 23 15 28 12 5 -3 9 0 9 5 0
15 15 14 29 -3z"/>
<path d="M563 733 c-7 -3 -13 -9 -13 -14 0 -6 5 -7 10 -4 6 3 10 1 10 -6 0
-10 3 -10 12 -1 14 14 0 32 -19 25z"/>
<path d="M206 708 c3 -4 9 -8 15 -8 5 0 9 4 9 8 0 5 -7 9 -15 9 -8 0 -12 -4
-9 -9z"/>
<path d="M576 678 c5 -7 9 -19 10 -26 3 -18 14 -29 14 -13 0 7 4 10 9 6 5 -3
13 0 17 6 4 8 3 9 -4 5 -7 -4 -12 -3 -12 1 0 5 -9 14 -21 21 -17 11 -20 11
-13 0z"/>
<path d="M662 599 c-30 -27 -42 -66 -25 -83 4 -3 8 -14 9 -24 2 -9 7 -18 12
-20 6 -2 7 -12 5 -23 -4 -15 -8 -17 -14 -8 -4 8 -11 10 -16 6 -4 -5 -1 -12 7
-17 8 -5 16 -18 16 -30 1 -11 3 -22 4 -25 1 -3 3 -15 4 -27 1 -15 8 -23 21
-24 41 -2 46 -5 57 -29 6 -14 15 -25 20 -25 4 0 4 8 -1 17 -14 27 -24 56 -25
75 -1 21 -12 31 -37 35 -17 3 -18 0 -9 -17 8 -15 8 -18 -3 -14 -9 3 -13 22
-12 64 1 32 -1 57 -5 55 -3 -2 -5 8 -4 23 2 42 4 46 11 39 3 -4 16 -1 28 7 19
12 23 12 32 -3 9 -14 7 -20 -8 -29 -12 -8 -19 -8 -19 -2 0 5 5 10 10 10 6 0
10 5 10 10 0 15 -12 12 -40 -11 -14 -11 -20 -18 -14 -15 7 3 18 -2 25 -11 8
-9 9 -14 3 -10 -7 4 -11 -2 -11 -17 0 -21 2 -23 18 -13 10 6 16 13 14 15 -9
10 16 41 29 36 18 -7 15 17 -4 42 -12 16 -12 17 0 7 8 -7 19 -13 25 -13 5 0
-1 9 -15 20 -22 17 -27 17 -41 4 -21 -19 -34 -2 -19 25 16 32 -2 32 -38 0z
m32 6 c-4 -8 -11 -15 -16 -15 -6 0 -5 -7 2 -15 7 -9 10 -18 6 -22 -3 -3 -6 -1
-6 6 0 7 -8 3 -18 -10 -19 -22 -19 -22 -17 -1 1 12 12 33 25 47 27 29 32 31
24 10z m31 -225 c3 -5 1 -10 -4 -10 -6 0 -11 5 -11 10 0 6 2 10 4 10 3 0 8 -4
11 -10z m2 -27 c-4 -3 -1 -13 6 -22 11 -14 10 -14 -5 -2 -21 15 -23 31 -6 31
6 0 8 -3 5 -7z m-32 -13 c-3 -5 -12 -10 -18 -10 -7 0 -6 4 3 10 19 12 23 12
15 0z"/>
<path d="M203 535 c0 -8 4 -12 9 -9 5 3 6 10 3 15 -9 13 -12 11 -12 -6z"/>
<path d="M460 501 c-8 -6 -17 -8 -20 -6 -4 2 -7 -2 -7 -10 0 -8 4 -12 9 -9 15
9 8 -6 -11 -25 -11 -11 -22 -17 -25 -15 -3 2 -4 1 -1 -3 7 -9 -16 -34 -26 -27
-5 3 -9 0 -9 -5 0 -12 27 -10 48 2 6 5 12 4 12 0 0 -5 9 -14 20 -21 11 -7 19
-8 18 -3 -2 4 8 18 22 30 14 12 21 21 15 20 -29 -4 -34 2 -17 19 11 12 21 16
29 10 7 -5 14 -5 18 2 5 8 14 6 28 -7 22 -18 22 -18 4 3 -9 11 -14 23 -11 27
4 4 -3 5 -14 2 -11 -2 -26 3 -33 11 -13 16 -28 18 -49 5z m52 -19 c8 -6 19 -8
23 -4 5 4 5 1 1 -6 -5 -9 -12 -10 -20 -3 -8 7 -18 2 -34 -14 -19 -20 -21 -25
-8 -32 13 -7 13 -10 -3 -20 -15 -10 -22 -9 -31 3 -10 11 -16 12 -29 2 -10 -8
-9 -3 4 12 25 31 37 40 46 34 4 -2 10 0 13 5 3 5 -2 12 -11 15 -14 6 -15 9 -4
15 17 11 35 9 53 -7z"/>
<path d="M476 478 c3 -5 10 -6 15 -3 13 9 11 12 -6 12 -8 0 -12 -4 -9 -9z"/>
<path d="M441 436 c-8 -10 -8 -16 3 -25 9 -8 16 -8 20 -2 4 5 2 12 -4 16 -6 4
-8 11 -5 16 9 14 -1 11 -14 -5z"/>
<path d="M744 501 c4 -6 2 -11 -4 -11 -6 0 -9 -4 -5 -9 3 -6 -4 -15 -15 -21
-14 -8 -19 -18 -16 -28 5 -14 3 -13 -8 2 -14 18 -15 18 -13 -3 2 -29 23 -34
40 -7 11 16 26 23 57 24 27 2 39 -1 35 -8 -3 -5 -2 -10 3 -10 6 0 13 7 16 16
4 11 -1 18 -14 21 -11 3 -20 10 -20 15 0 5 4 7 8 4 4 -2 14 -1 21 3 9 6 10 11
2 15 -6 4 -11 2 -11 -4 0 -6 -4 -9 -9 -5 -6 3 -14 -3 -20 -12 -6 -10 -11 -13
-11 -6 0 7 -10 17 -21 24 -15 8 -19 8 -15 0z m24 -27 c-2 -8 -6 -14 -9 -12 -4
2 -16 -6 -28 -16 -12 -11 -21 -14 -21 -9 0 12 29 27 44 24 5 -1 6 5 3 14 -4 8
-2 15 4 15 6 0 9 -7 7 -16z"/>
<path d="M844 448 c-11 -17 6 -22 22 -7 13 14 13 16 -1 16 -9 0 -18 -4 -21 -9z"/>
<path d="M416 353 c-6 -14 -5 -15 5 -6 7 7 10 15 7 18 -3 3 -9 -2 -12 -12z"/>
<path d="M664 280 c0 -13 4 -16 10 -10 7 7 7 13 0 20 -6 6 -10 3 -10 -10z"/>
<path d="M675 190 c-3 -5 -2 -10 4 -10 5 0 13 5 16 10 3 6 2 10 -4 10 -5 0
-13 -4 -16 -10z"/>
<path d="M744 109 c-3 -6 -1 -15 5 -20 6 -5 9 -6 6 -3 -3 4 0 13 6 21 8 9 8
13 1 13 -6 0 -14 -5 -18 -11z"/>
<path d="M510 60 c0 -5 5 -10 11 -10 5 0 7 5 4 10 -3 6 -8 10 -11 10 -2 0 -4
-4 -4 -10z"/>
</g>
</svg>
